<svg xmlns="http://www.w3.org/2000/svg" viewBox="0 0 512 512">
  <defs>
    <linearGradient id="s" x1="0" y1="0" x2="0" y2="1"><stop offset="0" stop-color="#3a8ea4"/><stop offset="1" stop-color="#1F5E72"/></linearGradient>
    <radialGradient id="i" cx=".45" cy=".4" r=".7"><stop offset="0" stop-color="#f7ead0"/><stop offset="1" stop-color="#E6D0A6"/></radialGradient>
  </defs>
  <rect width="512" height="512" fill="url(#s)"/>
  <ellipse cx="256" cy="336" rx="196" ry="92" fill="#5FA3B5" opacity=".5"/>
  <ellipse cx="256" cy="330" rx="170" ry="72" fill="url(#i)"/>
  <path d="M130 322 L300 282 L306 298 L136 338 Z" fill="#626d72"/>
  <path d="M160 314 l24 -6 M204 304 l24 -6 M248 294 l24 -6" stroke="#FBF5E9" stroke-width="4"/>
  <path d="M338 330 C342 290 336 250 350 206" stroke="#8a6a44" stroke-width="14" fill="none" stroke-linecap="round"/>
  <path d="M350 206 l-70 26 l30 -40z" fill="#4E8A5A"/>
  <path d="M350 206 l70 18 l-36 -40z" fill="#5d9a68"/>
  <path d="M350 206 l-46 -48 l52 16z" fill="#5d9a68"/>
  <path d="M350 206 l44 -52 l-14 48z" fill="#4E8A5A"/>
  <g transform="translate(212 196) rotate(-18)">
    <rect x="-9" y="-44" width="18" height="88" rx="9" fill="#FBF5E9"/>
    <path d="M-60 -6 h120 l-8 14 h-104z" fill="#FBF5E9"/>
    <path d="M-24 34 h48 l-4 10 h-40z" fill="#FBF5E9"/>
    <rect x="-60" y="-6" width="16" height="14" fill="#C7502F" opacity="0"/>
    <path d="M-40 1 h80" stroke="#E0A458" stroke-width="6"/>
  </g>
</svg>
